HIERARCHY
ROOT Hips
{
  OFFSET 53.67 58.924 -14.2539
  CHANNELS 6 Xposition Yposition Zposition Zrotation Xrotation Yrotation
  JOINT spine
  {
    OFFSET 0 7.4756 0.429885
    CHANNELS 3 Zrotation Xrotation Yrotation
    JOINT spine1
    {
      OFFSET 0 9.92301 0
      CHANNELS 3 Zrotation Xrotation Yrotation
      JOINT spine2
      {
        OFFSET 0 9.50804 0
        CHANNELS 3 Zrotation Xrotation Yrotation
        JOINT Neck
        {
          OFFSET 0 24.4111 1.16384
          CHANNELS 3 Zrotation Xrotation Yrotation
          JOINT Head
          {
            OFFSET 0 7.37523 0
            CHANNELS 3 Zrotation Xrotation Yrotation
            End Site
            {
              OFFSET 0 17.8522 -5.88741
            }
          }
        }
        JOINT RightShoulder
        {
          OFFSET -4.00356 10.2679 -0.557468
          CHANNELS 3 Zrotation Xrotation Yrotation
          JOINT RightArm
          {
            OFFSET 0 13.4673 0
            CHANNELS 3 Zrotation Xrotation Yrotation
            JOINT RightArmRoll
            {
              OFFSET 0 6.79858 0
              CHANNELS 3 Zrotation Xrotation Yrotation
              JOINT RightForeArm
              {
                OFFSET 0 19.8018 0
                CHANNELS 3 Zrotation Xrotation Yrotation
                JOINT RightForeArmRoll
                {
                  OFFSET 0 7.62905 0
                  CHANNELS 3 Zrotation Xrotation Yrotation
                  JOINT RightHand
                  {
                    OFFSET 0 15.3098 0
                    CHANNELS 3 Zrotation Xrotation Yrotation
                    End Site
                    {
                      OFFSET 0 0 0
                    }
                  }
                }
              }
            }
          }
        }
        JOINT LeftShoulder
        {
          OFFSET 4.00356 10.2679 -0.557468
          CHANNELS 3 Zrotation Xrotation Yrotation
          JOINT LeftArm
          {
            OFFSET 0 13.4673 0
            CHANNELS 3 Zrotation Xrotation Yrotation
            JOINT LeftArmRoll
            {
              OFFSET 0 6.79857 0
              CHANNELS 3 Zrotation Xrotation Yrotation
              JOINT LeftForeArm
              {
                OFFSET 0 19.8018 0
                CHANNELS 3 Zrotation Xrotation Yrotation
                JOINT LeftForeArmRoll
                {
                  OFFSET 0 7.62905 0
                  CHANNELS 3 Zrotation Xrotation Yrotation
                  JOINT LeftHand
                  {
                    OFFSET 0 15.3098 0
                    CHANNELS 3 Zrotation Xrotation Yrotation
                    End Site
                    {
                      OFFSET 0 0 0
                    }
                  }
                }
              }
            }
          }
        }
      }
    }
  }
  JOINT RightUpLeg
  {
    OFFSET -6.62609 -1.21505 -1.01927
    CHANNELS 3 Zrotation Xrotation Yrotation
    JOINT RightUpLegRoll
    {
      OFFSET 0 17.9517 0
      CHANNELS 3 Zrotation Xrotation Yrotation
      JOINT RightLeg
      {
        OFFSET 0 -22.2304 0
        CHANNELS 3 Zrotation Xrotation Yrotation
        JOINT RightLegRoll
        {
          OFFSET 0 22.3032 0
          CHANNELS 3 Zrotation Xrotation Yrotation
          JOINT RightFoot
          {
            OFFSET 0 18.5636 0
            CHANNELS 3 Zrotation Xrotation Yrotation
            JOINT RightToeBase
            {
              OFFSET 0 15.5183 0
              CHANNELS 3 Zrotation Xrotation Yrotation
              End Site
              {
                OFFSET 0.00657761 7.51539 -0.866262
              }
            }
          }
        }
      }
    }
  }
  JOINT LeftUpLeg
  {
    OFFSET 6.62609 -1.21505 -1.01927
    CHANNELS 3 Zrotation Xrotation Yrotation
    JOINT LeftUpLegRoll
    {
      OFFSET 0 17.9518 0
      CHANNELS 3 Zrotation Xrotation Yrotation
      JOINT LeftLeg
      {
        OFFSET 0 22.2303 0
        CHANNELS 3 Zrotation Xrotation Yrotation
        JOINT LeftLegRoll
        {
          OFFSET 0 22.5093 0
          CHANNELS 3 Zrotation Xrotation Yrotation
          JOINT LeftFoot
          {
            OFFSET 0 18.3575 0
            CHANNELS 3 Zrotation Xrotation Yrotation
            JOINT LeftToeBase
            {
              OFFSET 0 15.5183 0
              CHANNELS 3 Zrotation Xrotation Yrotation
              End Site
              {
                OFFSET -0.029478 7.51538 -0.866263
              }
            }
          }
        }
      }
    }
  }
}
MOTION
Frames: 12
Frame Time: 0.00208333
55.4915 94.2047 21.7836 -1.13815 1.91688 1.6808 -0.208918 -2.53866 -0.237504 -0.422139 -1.07372 -0.433888 -0.416947 0.57131 -0.426838 -0.640108 11.6854 -2.64186 4.87469 1.40744 -2.39945 78.4978 -1.95427 -3.0371 95.3753 18.3564 12.4659 3.5707e-007 -1.77474e-006 -2.6986e-006 11.0037 0.44814 -0.585746 1.8397e-007 3.08484e-006 -3.00953 8.02891 -4.95145 0.697693 -66.5429 -6.15973 4.19643 -102.234 7.89093 -27.0243 -8.34698e-007 2.93876e-006 2.9132e-006 1.47781 3.56714 0.785738 -1.07648e-005 -3.49335e-006 3.00139 -8.03024 -4.95139 -0.697624 -176.665 3.5712 -3.64567 -180 7.01586e-015 179.108 178.147 5.15416 179.756 -6.21683e-008 -2.57407e-006 0.0409531 -18.3036 67.647 19.2362 8.14176 25.2324 -3.48998 -177.675 6.26857 1.18338 4.54188e-006 -4.6773e-006 -0.92689 -4.43681 -9.50875 -0.136895 5.31001e-006 -1.63567e-006 -0.112778 19.8217 69.5962 -20.9676 -8.1398 25.2325 3.48915 
55.4854 94.2106 21.7578 -1.13864 1.93714 1.69541 -0.209142 -2.53689 -0.23556 -0.423519 -1.07018 -0.43167 -0.418354 0.57485 -0.424598 -0.615084 11.6376 -2.65316 4.85872 1.44966 -2.4076 78.5154 -1.96739 -3.04379 95.383 18.3938 12.3871 3.5707e-007 -1.77474e-006 -2.6986e-006 11.045 0.489889 -0.586961 1.8397e-007 3.08484e-006 -3.00953 8.02891 -4.95145 0.697693 -66.5304 -6.14336 4.18706 -102.267 7.96221 -26.9385 -8.34698e-007 2.93876e-006 2.9132e-006 1.43727 3.55262 0.787967 -1.07648e-005 -3.49335e-006 3.00139 -8.03024 -4.95139 -0.697624 -176.669 3.59865 -3.64496 -180 7.01586e-015 179.108 178.142 5.15034 179.756 -6.21683e-008 -2.57407e-006 0.0408999 -18.3025 67.6456 19.235 8.14176 25.2324 -3.48998 -177.669 6.31211 1.17883 4.54188e-006 -4.6773e-006 -0.926851 -4.43995 -9.52476 -0.137067 5.31001e-006 -1.63567e-006 -0.112778 19.8192 69.5938 -20.965 -8.1398 25.2325 3.48915 
55.4814 94.2091 21.7482 -1.13956 1.95675 1.71073 -0.209303 -2.53492 -0.233507 -0.424869 -1.06625 -0.429304 -0.419734 0.578782 -0.422212 -0.587979 11.5882 -2.66548 4.84187 1.49294 -2.41638 78.5337 -1.98141 -3.0509 95.3905 18.4311 12.3091 3.5707e-007 -1.77474e-006 -2.6986e-006 11.0858 0.532403 -0.588322 1.8397e-007 3.08484e-006 -3.00953 8.02891 -4.95145 0.697693 -66.5152 -6.12704 4.17756 -102.305 8.03301 -26.8528 -8.34698e-007 2.93876e-006 2.9132e-006 1.39744 3.53984 0.790213 -1.07648e-005 -3.49335e-006 3.00139 -8.03024 -4.95139 -0.697624 -176.672 3.62444 -3.6442 -180 7.01586e-015 179.108 178.137 5.14482 179.757 -6.21683e-008 -2.57407e-006 0.0408207 -18.3011 67.6438 19.2333 8.14176 25.2324 -3.48998 -177.663 6.35579 1.17413 4.54188e-006 -4.6773e-006 -0.926853 -4.44283 -9.54208 -0.137226 5.31001e-006 -1.63567e-006 -0.112778 19.8171 69.5916 -20.9628 -8.1398 25.2325 3.48915 
55.4715 94.2138 21.7437 -1.14079 1.97592 1.72655 -0.20942 -2.53282 -0.231378 -0.4262 -1.06204 -0.426836 -0.421096 0.582988 -0.419723 -0.559427 11.5376 -2.67853 4.8244 1.53694 -2.42561 78.5526 -1.99608 -3.05832 95.398 18.4683 12.2317 3.5707e-007 -1.77474e-006 -2.6986e-006 11.1262 0.575452 -0.589786 1.8397e-007 3.08484e-006 -3.00953 8.02891 -4.95145 0.697693 -66.4981 -6.11075 4.16798 -102.345 8.1035 -26.767 -8.34698e-007 2.93876e-006 2.9132e-006 1.35811 3.52826 0.792471 -1.07648e-005 -3.49335e-006 3.00139 -8.03024 -4.95139 -0.697624 -176.676 3.64907 -3.64339 -180 7.01586e-015 179.108 178.132 5.13811 179.757 -6.21683e-008 -2.57407e-006 0.0407233 -18.2993 67.6417 19.2314 8.14176 25.2324 -3.48998 -177.657 6.39955 1.16933 4.54188e-006 -4.6773e-006 -0.926885 -4.44553 -9.56033 -0.137375 5.31001e-006 -1.63567e-006 -0.112778 19.8153 69.5897 -20.9608 -8.1398 25.2325 3.48915 
55.4688 94.2141 21.7281 -1.1422 1.99483 1.74266 -0.209513 -2.53063 -0.229205 -0.42752 -1.05768 -0.424309 -0.422448 0.587352 -0.417175 -0.53006 11.4864 -2.69198 4.80659 1.58137 -2.43509 78.5718 -2.01112 -3.0659 95.4053 18.5055 12.1546 3.5707e-007 -1.77474e-006 -2.6986e-006 11.1663 0.618806 -0.591309 1.8397e-007 3.08484e-006 -3.00953 8.02891 -4.95145 0.697693 -66.4798 -6.09448 4.15836 -102.386 8.17384 -26.6812 -8.34698e-007 2.93876e-006 2.9132e-006 1.31908 3.51737 0.794735 -1.07648e-005 -3.49335e-006 3.00139 -8.03024 -4.95139 -0.697624 -176.679 3.67304 -3.64255 -180 7.01586e-015 179.108 178.127 5.13072 179.758 -6.21683e-008 -2.57407e-006 0.0406156 -18.2974 67.6393 19.2292 8.14176 25.2324 -3.48998 -177.651 6.44337 1.16446 4.54188e-006 -4.6773e-006 -0.926933 -4.44813 -9.5791 -0.137519 5.31001e-006 -1.63567e-006 -0.112778 19.8135 69.588 -20.959 -8.1398 25.2325 3.48915 
55.4661 94.2141 21.7045 -1.14366 2.01368 1.75884 -0.209599 -2.52843 -0.22702 -0.428837 -1.05328 -0.421767 -0.423797 0.591755 -0.414612 -0.500508 11.4351 -2.70554 4.78871 1.6259 -2.44464 78.591 -2.02624 -3.07353 95.4128 18.5427 12.0775 3.5707e-007 -1.77474e-006 -2.6986e-006 11.2065 0.662237 -0.592847 1.8397e-007 3.08484e-006 -3.00953 8.02891 -4.95145 0.697693 -66.4613 -6.07821 4.14872 -102.428 8.24421 -26.5955 -8.34698e-007 2.93876e-006 2.9132e-006 1.28011 3.50665 0.797001 -1.07648e-005 -3.49335e-006 3.00139 -8.03024 -4.95139 -0.697624 -176.682 3.69685 -3.64171 -180 7.01586e-015 179.108 178.121 5.12317 179.758 -6.21683e-008 -2.57407e-006 0.0405053 -18.2955 67.6369 19.2271 8.14176 25.2324 -3.48998 -177.644 6.4872 1.15959 4.54188e-006 -4.6773e-006 -0.926985 -4.45071 -9.598 -0.137662 5.31001e-006 -1.63567e-006 -0.112778 19.8118 69.5863 -20.9572 -8.1398 25.2325 3.48915 
55.4585 94.2063 21.6934 -1.14505 2.03265 1.77488 -0.209698 -2.52627 -0.224858 -0.430161 -1.04895 -0.419255 -0.425152 0.59608 -0.412079 -0.471399 11.384 -2.71888 4.77102 1.67022 -2.45407 78.6101 -2.04118 -3.08108 95.4204 18.5798 12.0003 3.5707e-007 -1.77474e-006 -2.6986e-006 11.2467 0.705515 -0.594356 1.8397e-007 3.08484e-006 -3.00953 8.02891 -4.95145 0.697693 -66.4434 -6.06193 4.13911 -102.47 8.31476 -26.5097 -8.34698e-007 2.93876e-006 2.9132e-006 1.241 3.49559 0.799264 -1.07648e-005 -3.49335e-006 3.00139 -8.03024 -4.95139 -0.697624 -176.685 3.72098 -3.64088 -180 7.01586e-015 179.108 178.116 5.11595 179.759 -6.21683e-008 -2.57407e-006 0.0404001 -18.2936 67.6346 19.225 8.14176 25.2324 -3.48998 -177.638 6.531 1.15474 4.54188e-006 -4.6773e-006 -0.927029 -4.45333 -9.61664 -0.137808 5.31001e-006 -1.63567e-006 -0.112778 19.8101 69.5845 -20.9553 -8.1398 25.2325 3.48915 
55.4502 94.2093 21.6859 -1.14623 2.05194 1.79056 -0.209829 -2.5242 -0.222751 -0.431499 -1.04482 -0.416816 -0.426521 0.600208 -0.409619 -0.443361 11.3338 -2.73171 4.75379 1.71401 -2.46318 78.6288 -2.05567 -3.08841 95.4282 18.617 11.9226 3.5707e-007 -1.77474e-006 -2.6986e-006 11.2872 0.748411 -0.595793 1.8397e-007 3.08484e-006 -3.00953 8.02891 -4.95145 0.697693 -66.4267 -6.04563 4.12956 -102.51 8.38568 -26.424 -8.34698e-007 2.93876e-006 2.9132e-006 1.20154 3.48367 0.801518 -1.07648e-005 -3.49335e-006 3.00139 -8.03024 -4.95139 -0.697624 -176.688 3.74595 -3.64008 -180 7.01586e-015 179.108 178.111 5.10957 179.759 -6.21683e-008 -2.57407e-006 0.0403079 -18.292 67.6325 19.2231 8.14176 25.2324 -3.48998 -177.631 6.57474 1.14996 4.54188e-006 -4.6773e-006 -0.927052 -4.45609 -9.63462 -0.13796 5.31001e-006 -1.63567e-006 -0.112778 19.8081 69.5825 -20.9532 -8.1398 25.2325 3.48915 
55.447 94.2188 21.6709 -1.14709 2.07175 1.80567 -0.21001 -2.52229 -0.22073 -0.43286 -1.04101 -0.414495 -0.427912 0.604023 -0.407277 -0.41702 11.2849 -2.74371 4.73729 1.75696 -2.47178 78.6469 -2.06942 -3.0954 95.4365 18.6542 11.8442 3.5707e-007 -1.77474e-006 -2.6986e-006 11.3282 0.790695 -0.597112 1.8397e-007 3.08484e-006 -3.00953 8.02891 -4.95145 0.697693 -66.4123 -6.02929 4.1201 -102.548 8.45712 -26.3383 -8.34698e-007 2.93876e-006 2.9132e-006 1.1615 3.47036 0.803759 -1.07648e-005 -3.49335e-006 3.00139 -8.03024 -4.95139 -0.697624 -176.692 3.77223 -3.63934 -180 7.01586e-015 179.107 178.106 5.10457 179.76 -6.21683e-008 -2.57407e-006 0.0402365 -18.2907 67.6309 19.2216 8.14176 25.2324 -3.48998 -177.625 6.61838 1.14531 4.54188e-006 -4.6773e-006 -0.927042 -4.45904 -9.65155 -0.138122 5.31001e-006 -1.63567e-006 -0.112778 19.8059 69.5803 -20.9509 -8.1398 25.2325 3.48915 
55.4421 94.2166 21.6534 -1.1475 2.09226 1.82 -0.21026 -2.5206 -0.218831 -0.434253 -1.03763 -0.412336 -0.429332 0.607405 -0.405095 -0.392999 11.2377 -2.75458 4.72178 1.79876 -2.47969 78.6642 -2.08217 -3.10192 95.4451 18.6915 11.7648 3.5707e-007 -1.77474e-006 -2.6986e-006 11.3697 0.832138 -0.598271 1.8397e-007 3.08484e-006 -3.00953 8.02891 -4.95145 0.697693 -66.4009 -6.0129 4.11078 -102.582 8.52927 -26.2527 -8.34698e-007 2.93876e-006 2.9132e-006 1.12067 3.45516 0.805981 -1.07648e-005 -3.49335e-006 3.00139 -8.03024 -4.95139 -0.697624 -176.695 3.80034 -3.63867 -180 7.01586e-015 179.107 178.101 5.10143 179.76 -6.21683e-008 -2.57407e-006 0.0401937 -18.2898 67.6298 19.2205 8.14176 25.2324 -3.48998 -177.62 6.66187 1.14082 4.54188e-006 -4.6773e-006 -0.926987 -4.46228 -9.66703 -0.1383 5.31001e-006 -1.63567e-006 -0.112778 19.8034 69.5777 -20.9482 -8.1398 25.2325 3.48915 
55.437 94.2212 21.6411 -1.14733 2.11367 1.83332 -0.210598 -2.51918 -0.217084 -0.435686 -1.03479 -0.410383 -0.43079 0.610237 -0.403119 -0.371923 11.1927 -2.76399 4.70754 1.83909 -2.48671 78.6804 -2.09364 -3.10784 95.4543 18.7288 11.6842 3.5707e-007 -1.77474e-006 -2.6986e-006 11.412 0.87251 -0.599226 1.8397e-007 3.08484e-006 -3.00953 8.02891 -4.95145 0.697693 -66.3933 -5.99645 4.10163 -102.611 8.60228 -26.1671 -8.34698e-007 2.93876e-006 2.9132e-006 1.07885 3.43754 0.808179 -1.07648e-005 -3.49335e-006 3.00139 -8.03024 -4.95139 -0.697624 -176.7 3.83077 -3.63809 -180 7.01586e-015 179.107 178.097 5.10068 179.76 -6.21683e-008 -2.57407e-006 0.0401872 -18.2894 67.6294 19.2201 8.14176 25.2324 -3.48998 -177.615 6.70519 1.13654 4.54188e-006 -4.6773e-006 -0.926872 -4.46588 -9.68068 -0.138496 5.31001e-006 -1.63567e-006 -0.112778 19.8004 69.5746 -20.945 -8.1398 25.2325 3.48915 
55.4326 94.2197 21.6199 -1.14646 2.13616 1.84543 -0.211043 -2.5181 -0.215523 -0.437168 -1.03263 -0.40868 -0.432293 0.612402 -0.401393 -0.354412 11.1504 -2.77166 4.69483 1.87763 -2.49265 78.6953 -2.10356 -3.11304 95.4641 18.7662 11.602 3.5707e-007 -1.77474e-006 -2.6986e-006 11.4552 0.911583 -0.599933 1.8397e-007 3.08484e-006 -3.00953 8.02891 -4.95145 0.697693 -66.3904 -5.97992 4.09268 -102.634 8.67634 -26.0816 -8.34698e-007 2.93876e-006 2.9132e-006 1.03581 3.41698 0.810349 -1.07648e-005 -3.49335e-006 3.00139 -8.03024 -4.95139 -0.697624 -176.704 3.86401 -3.63762 -180 7.01586e-015 179.107 178.093 5.10282 179.761 -6.21683e-008 -2.57407e-006 0.0402248 -18.2898 67.6298 19.2203 8.14176 25.2324 -3.48998 -177.611 6.74828 1.13252 4.54188e-006 -4.6773e-006 -0.926687 -4.4699 -9.69209 -0.138714 5.31001e-006 -1.63567e-006 -0.112778 19.7968 69.5709 -20.9412 -8.1398 25.2325 3.48915 
